<?xml version="1.0" encoding="UTF-8" standalone="no"?>
<!-- Created with Inkscape (http://www.inkscape.org/) -->

<svg
   xmlns:dc="http://purl.org/dc/elements/1.1/"
   xmlns:cc="http://creativecommons.org/ns#"
   xmlns:rdf="http://www.w3.org/1999/02/22-rdf-syntax-ns#"
   xmlns:svg="http://www.w3.org/2000/svg"
   xmlns="http://www.w3.org/2000/svg"
   xmlns:xlink="http://www.w3.org/1999/xlink"
   version="1.1"
   width="800"
   height="800"
   id="svg2">
  <defs
     id="defs4">
    <linearGradient
       id="linearGradient3967">
      <stop
         id="stop3969"
         style="stop-color:#7b647f;stop-opacity:1"
         offset="0" />
      <stop
         id="stop3971"
         style="stop-color:#342a39;stop-opacity:1"
         offset="1" />
    </linearGradient>
    <linearGradient
       id="linearGradient3951">
      <stop
         id="stop3953"
         style="stop-color:#5d4265;stop-opacity:1"
         offset="0" />
      <stop
         id="stop3955"
         style="stop-color:#34293a;stop-opacity:1"
         offset="1" />
    </linearGradient>
    <linearGradient
       id="linearGradient3931">
      <stop
         id="stop3933"
         style="stop-color:#ffffff;stop-opacity:1"
         offset="0" />
      <stop
         id="stop3935"
         style="stop-color:#ffffff;stop-opacity:0"
         offset="1" />
    </linearGradient>
    <linearGradient
       id="linearGradient3905">
      <stop
         id="stop3907"
         style="stop-color:#483165;stop-opacity:1"
         offset="0" />
      <stop
         id="stop3909"
         style="stop-color:#26202c;stop-opacity:1"
         offset="1" />
    </linearGradient>
    <radialGradient
       cx="401.8"
       cy="620.7"
       r="371.5"
       fx="401.8"
       fy="620.7"
       id="radialGradient3911"
       xlink:href="#linearGradient3905"
       gradientUnits="userSpaceOnUse"
       gradientTransform="matrix(1.429e-5,-0.5911,0.5568,6.376e-5,56.45,858.1)" />
    <linearGradient
       x1="423.4"
       y1="279.1"
       x2="426"
       y2="350.5"
       id="linearGradient3937"
       xlink:href="#linearGradient3931"
       gradientUnits="userSpaceOnUse" />
    <filter
       color-interpolation-filters="sRGB"
       id="filter3947">
      <feGaussianBlur
         id="feGaussianBlur3949"
         stdDeviation="1.478" />
    </filter>
    <linearGradient
       x1="423.2"
       y1="537.7"
       x2="425.9"
       y2="679.9"
       id="linearGradient3957"
       xlink:href="#linearGradient3951"
       gradientUnits="userSpaceOnUse"
       gradientTransform="translate(-28.28,234.4)" />
    <filter
       color-interpolation-filters="sRGB"
       id="filter3963">
      <feGaussianBlur
         id="feGaussianBlur3965"
         stdDeviation="1.056" />
    </filter>
    <linearGradient
       x1="418.2"
       y1="527.3"
       x2="418.2"
       y2="446.3"
       id="linearGradient3973"
       xlink:href="#linearGradient3967"
       gradientUnits="userSpaceOnUse" />
  </defs>
  <metadata
     id="metadata7">
    <rdf:RDF>
      <cc:Work
         rdf:about="">
        <dc:format>image/svg+xml</dc:format>
        <dc:type
           rdf:resource="http://purl.org/dc/dcmitype/StillImage" />
        <dc:title></dc:title>
      </cc:Work>
    </rdf:RDF>
  </metadata>
  <g
     transform="translate(0,-252)"
     id="layer1">
    <path
       d="m 787.2,408.1 a 371.5,371.5 0 1 1 -743,0 371.5,371.5 0 1 1 743,0 z"
       transform="matrix(1.037,0,0,1.037,-36.33,230.2)"
       id="path2996-1"
       style="fill:#c7b6ca;fill-opacity:1;fill-rule:nonzero;stroke:none" />
    <path
       d="m 787.2,408.1 a 371.5,371.5 0 1 1 -743,0 371.5,371.5 0 1 1 743,0 z"
       transform="matrix(0.9966,0,0,0.9966,-19.54,261.6)"
       id="path2996-7"
       style="fill:#f2e7f1;fill-opacity:1;fill-rule:nonzero;stroke:none" />
    <path
       d="m 787.2,408.1 a 371.5,371.5 0 1 1 -743,0 371.5,371.5 0 1 1 743,0 z"
       transform="matrix(0.6986,0,0,0.6986,104.3,321.1)"
       id="path2996-8"
       style="fill:#916a9d;fill-opacity:1;fill-rule:nonzero;stroke:none" />
    <path
       d="m 787.2,408.1 a 371.5,371.5 0 1 1 -743,0 371.5,371.5 0 1 1 743,0 z"
       transform="matrix(0.6467,0,0,0.6467,125.9,351.6)"
       id="path2996-9"
       style="fill:#e1cce1;fill-opacity:1;fill-rule:nonzero;stroke:none" />
    <path
       d="m 787.2,408.1 a 371.5,371.5 0 1 1 -743,0 371.5,371.5 0 1 1 743,0 z"
       transform="matrix(0.416,0,0,0.416,221.8,413)"
       id="path2996-2"
       style="fill:#793e8a;fill-opacity:1;fill-rule:nonzero;stroke:none" />
    <path
       d="m 787.2,408.1 a 371.5,371.5 0 1 1 -743,0 371.5,371.5 0 1 1 743,0 z"
       transform="matrix(0.3622,0,0,0.3622,244.2,442.1)"
       id="path2996-4"
       style="fill:#ba93c0;fill-opacity:1;fill-rule:nonzero;stroke:none" />
    <path
       d="m 296.7,732.3 c 0,-45.8 53.1,-63.4 97.6,-62.5 44.5,0.9 97.6,17.3 97.6,59.9 0,72.6 -27.9,182.1 -46.4,272.3 -2.9,15 -11,17 -19.2,17 l -63.2,0 c -13,0 -18.6,-8 -20.4,-17 -17.8,-89.8 -46,-199.5 -46,-269.7 z"
       id="path3106"
       style="fill:#000000;stroke:#67b8db;stroke-width:1px;stroke-linecap:butt;stroke-linejoin:miter;stroke-opacity:1" />
    <path
       d="m 511.1,484.4 a 91.42,45.71 0 1 1 -182.8,0 91.42,45.71 0 1 1 182.8,0 z"
       transform="matrix(0.9384,0,0,0.8482,0.4657,303)"
       id="path3112"
       style="fill:url(#linearGradient3973);fill-opacity:1;stroke:none" />
    <path
       d="m 321.7,755.5 c -6.6,-0.1 -11.1,1.8 -11.1,8 0,42.6 39.8,244.5 84.7,244.5 44.9,0 82.7,-201 84.6,-244.5 0,-11.1 -14.2,-8.2 -29.1,-5.7 -18.2,3.1 -35.9,7.6 -55.1,7.1 -0.3,0 -0.6,0 -0.9,0 -19.2,0.5 -36.9,-4 -55.1,-7.1 -6.5,-1.1 -12.9,-2.3 -18,-2.3 z"
       id="path3882"
       style="opacity:0.8552;fill:url(#linearGradient3957);fill-opacity:1;stroke:none;filter:url(#filter3963)" />
    <path
       d="m 787.2,408.1 a 371.5,371.5 0 1 1 -743,0 371.5,371.5 0 1 1 743,0 z"
       transform="matrix(0.2084,0,0,0.2084,308.2,494.9)"
       id="path2996"
       style="fill:url(#radialGradient3911);fill-opacity:1;fill-rule:nonzero;stroke:none" />
    <path
       d="m 485,313.4 a 58.92,39.64 0 1 1 -117.8,0 58.92,39.64 0 1 1 117.8,0 z"
       transform="translate(-31.25,234.4)"
       id="path3903"
       style="opacity:0.7576;fill:url(#linearGradient3937);fill-opacity:1;fill-rule:nonzero;stroke:none;filter:url(#filter3947)" />
  </g>
</svg>
