<?xml version="1.0" encoding="UTF-8" standalone="no"?>
<!-- Created with Inkscape (http://www.inkscape.org/) -->

<svg
   xmlns:dc="http://purl.org/dc/elements/1.1/"
   xmlns:cc="http://creativecommons.org/ns#"
   xmlns:rdf="http://www.w3.org/1999/02/22-rdf-syntax-ns#"
   xmlns:svg="http://www.w3.org/2000/svg"
   xmlns="http://www.w3.org/2000/svg"
   xmlns:sodipodi="http://sodipodi.sourceforge.net/DTD/sodipodi-0.dtd"
   xmlns:inkscape="http://www.inkscape.org/namespaces/inkscape"
   width="440"
   height="110"
   id="svg2"
   version="1.1"
   inkscape:version="0.48.1 r9760"
   sodipodi:docname="Logo_Construction.svg">
  <defs
     id="defs4" />
  <sodipodi:namedview
     id="base"
     pagecolor="#ffffff"
     bordercolor="#666666"
     borderopacity="1.0"
     inkscape:pageopacity="0.0"
     inkscape:pageshadow="2"
     inkscape:zoom="1.4142136"
     inkscape:cx="219.48109"
     inkscape:cy="35.972719"
     inkscape:document-units="px"
     inkscape:current-layer="layer1"
     showgrid="false"
     fit-margin-top="0"
     fit-margin-left="0"
     fit-margin-right="0"
     fit-margin-bottom="0"
     showborder="true"
     borderlayer="true"
     inkscape:showpageshadow="false"
     inkscape:window-width="1366"
     inkscape:window-height="738"
     inkscape:window-x="0"
     inkscape:window-y="0"
     inkscape:window-maximized="1">
    <inkscape:grid
       type="xygrid"
       id="grid3002"
       empspacing="2"
       visible="true"
       enabled="true"
       snapvisiblegridlinesonly="true" />
  </sodipodi:namedview>
  <metadata
     id="metadata7">
    <rdf:RDF>
      <cc:Work
         rdf:about="">
        <dc:format>image/svg+xml</dc:format>
        <dc:type
           rdf:resource="http://purl.org/dc/dcmitype/StillImage" />
        <dc:title />
      </cc:Work>
    </rdf:RDF>
  </metadata>
  <g
     inkscape:label="Ebene 1"
     inkscape:groupmode="layer"
     id="layer1"
     transform="translate(-223.03758,-324.1122)">
    <rect
       style="fill:#ececec;fill-opacity:1;stroke:none"
       id="rect4196"
       width="439.99997"
       height="109.99998"
       x="223.03758"
       y="324.11221"
       ry="0" />
    <rect
       ry="0"
       y="404.11221"
       x="223.03758"
       height="30"
       width="440"
       id="rect3034"
       style="fill:#ececec;fill-opacity:1;stroke:none" />
    <rect
       style="fill:#ececec;fill-opacity:1;stroke:none"
       id="rect3299"
       width="440"
       height="26.000002"
       x="223.03758"
       y="338.11221"
       ry="0" />
    <g
       id="g3274"
       transform="translate(16.999992,81.000017)">
      <g
         id="g3355">
        <path
           sodipodi:type="arc"
           style="fill:#ffffff;fill-opacity:1;stroke:none"
           id="path3155"
           sodipodi:cx="12"
           sodipodi:cy="-11.999992"
           sodipodi:rx="12"
           sodipodi:ry="12"
           d="M 24,-11.999992 C 24,-5.3725754 18.627417,7.6293945e-6 12,7.6293945e-6 5.372583,7.6293945e-6 0,-5.3725754 0,-11.999992 c 0,-6.627417 5.372583,-12 12,-12 6.627417,0 12,5.372583 12,12 z"
           transform="translate(231.03758,316.11218)" />
        <path
           sodipodi:type="arc"
           style="fill:#ffffff;fill-opacity:1;stroke:none"
           id="path3159"
           sodipodi:cx="12"
           sodipodi:cy="-11.999992"
           sodipodi:rx="12"
           sodipodi:ry="12"
           d="M 24,-11.999992 C 24,-5.3725754 18.627417,7.6293945e-6 12,7.6293945e-6 5.372583,7.6293945e-6 0,-5.3725754 0,-11.999992 c 0,-6.627417 5.372583,-12 12,-12 6.627417,0 12,5.372583 12,12 z"
           transform="translate(279.03758,316.11218)" />
        <path
           sodipodi:type="arc"
           style="fill:#ffffff;fill-opacity:1;stroke:none"
           id="path3163"
           sodipodi:cx="12"
           sodipodi:cy="-11.999992"
           sodipodi:rx="12"
           sodipodi:ry="12"
           d="M 24,-11.999992 C 24,-5.3725754 18.627417,7.6293945e-6 12,7.6293945e-6 5.372583,7.6293945e-6 0,-5.3725754 0,-11.999992 c 0,-6.627417 5.372583,-12 12,-12 6.627417,0 12,5.372583 12,12 z"
           transform="translate(327.03758,316.11218)" />
        <path
           transform="translate(375.03758,316.11218)"
           d="M 24,-11.999992 C 24,-5.3725754 18.627417,7.6293945e-6 12,7.6293945e-6 5.372583,7.6293945e-6 0,-5.3725754 0,-11.999992 c 0,-6.627417 5.372583,-12 12,-12 6.627417,0 12,5.372583 12,12 z"
           sodipodi:ry="12"
           sodipodi:rx="12"
           sodipodi:cy="-11.999992"
           sodipodi:cx="12"
           id="path3167"
           style="fill:#ffffff;fill-opacity:1;stroke:none"
           sodipodi:type="arc" />
        <path
           transform="translate(423.03758,316.11218)"
           d="M 24,-11.999992 C 24,-5.3725754 18.627417,7.6293945e-6 12,7.6293945e-6 5.372583,7.6293945e-6 0,-5.3725754 0,-11.999992 c 0,-6.627417 5.372583,-12 12,-12 6.627417,0 12,5.372583 12,12 z"
           sodipodi:ry="12"
           sodipodi:rx="12"
           sodipodi:cy="-11.999992"
           sodipodi:cx="12"
           id="path3171"
           style="fill:#ffffff;fill-opacity:1;stroke:none"
           sodipodi:type="arc" />
        <path
           transform="translate(471.03758,316.11218)"
           d="M 24,-11.999992 C 24,-5.3725754 18.627417,7.6293945e-6 12,7.6293945e-6 5.372583,7.6293945e-6 0,-5.3725754 0,-11.999992 c 0,-6.627417 5.372583,-12 12,-12 6.627417,0 12,5.372583 12,12 z"
           sodipodi:ry="12"
           sodipodi:rx="12"
           sodipodi:cy="-11.999992"
           sodipodi:cx="12"
           id="path3175"
           style="fill:#ffffff;fill-opacity:1;stroke:none"
           sodipodi:type="arc" />
        <path
           transform="translate(519.03758,316.11218)"
           d="M 24,-11.999992 C 24,-5.3725754 18.627417,7.6293945e-6 12,7.6293945e-6 5.372583,7.6293945e-6 0,-5.3725754 0,-11.999992 c 0,-6.627417 5.372583,-12 12,-12 6.627417,0 12,5.372583 12,12 z"
           sodipodi:ry="12"
           sodipodi:rx="12"
           sodipodi:cy="-11.999992"
           sodipodi:cx="12"
           id="path3179"
           style="fill:#ffffff;fill-opacity:1;stroke:none"
           sodipodi:type="arc" />
        <path
           transform="translate(555.03758,316.11217)"
           d="M 24,-11.999992 C 24,-5.3725754 18.627417,7.6293945e-6 12,7.6293945e-6 5.372583,7.6293945e-6 0,-5.3725754 0,-11.999992 c 0,-6.627417 5.372583,-12 12,-12 6.627417,0 12,5.372583 12,12 z"
           sodipodi:ry="12"
           sodipodi:rx="12"
           sodipodi:cy="-11.999992"
           sodipodi:cx="12"
           id="path3183"
           style="fill:#ffffff;fill-opacity:1;stroke:none"
           sodipodi:type="arc" />
        <path
           transform="translate(597.03758,316.11217)"
           d="M 24,-11.999992 C 24,-5.3725754 18.627417,7.6293945e-6 12,7.6293945e-6 5.372583,7.6293945e-6 0,-5.3725754 0,-11.999992 c 0,-6.627417 5.372583,-12 12,-12 6.627417,0 12,5.372583 12,12 z"
           sodipodi:ry="12"
           sodipodi:rx="12"
           sodipodi:cy="-11.999992"
           sodipodi:cx="12"
           id="path3187"
           style="fill:#ffffff;fill-opacity:1;stroke:none"
           sodipodi:type="arc" />
      </g>
      <g
         id="g3333">
        <path
           transform="translate(255.03758,316.11218)"
           d="M 24,-11.999992 C 24,-5.3725754 18.627417,7.6293945e-6 12,7.6293945e-6 5.372583,7.6293945e-6 0,-5.3725754 0,-11.999992 c 0,-6.627417 5.372583,-12 12,-12 6.627417,0 12,5.372583 12,12 z"
           sodipodi:ry="12"
           sodipodi:rx="12"
           sodipodi:cy="-11.999992"
           sodipodi:cx="12"
           id="path3157"
           style="fill:#e6e6e6;fill-opacity:1;stroke:none"
           sodipodi:type="arc" />
        <path
           transform="translate(303.03758,316.11218)"
           d="M 24,-11.999992 C 24,-5.3725754 18.627417,7.6293945e-6 12,7.6293945e-6 5.372583,7.6293945e-6 0,-5.3725754 0,-11.999992 c 0,-6.627417 5.372583,-12 12,-12 6.627417,0 12,5.372583 12,12 z"
           sodipodi:ry="12"
           sodipodi:rx="12"
           sodipodi:cy="-11.999992"
           sodipodi:cx="12"
           id="path3161"
           style="fill:#e6e6e6;fill-opacity:1;stroke:none"
           sodipodi:type="arc" />
        <path
           transform="translate(351.03758,316.11218)"
           d="M 24,-11.999992 C 24,-5.3725754 18.627417,7.6293945e-6 12,7.6293945e-6 5.372583,7.6293945e-6 0,-5.3725754 0,-11.999992 c 0,-6.627417 5.372583,-12 12,-12 6.627417,0 12,5.372583 12,12 z"
           sodipodi:ry="12"
           sodipodi:rx="12"
           sodipodi:cy="-11.999992"
           sodipodi:cx="12"
           id="path3165"
           style="fill:#e6e6e6;fill-opacity:1;stroke:none"
           sodipodi:type="arc" />
        <path
           sodipodi:type="arc"
           style="fill:#e6e6e6;fill-opacity:1;stroke:none"
           id="path3169"
           sodipodi:cx="12"
           sodipodi:cy="-11.999992"
           sodipodi:rx="12"
           sodipodi:ry="12"
           d="M 24,-11.999992 C 24,-5.3725754 18.627417,7.6293945e-6 12,7.6293945e-6 5.372583,7.6293945e-6 0,-5.3725754 0,-11.999992 c 0,-6.627417 5.372583,-12 12,-12 6.627417,0 12,5.372583 12,12 z"
           transform="translate(399.03758,316.11218)" />
        <path
           sodipodi:type="arc"
           style="fill:#e6e6e6;fill-opacity:1;stroke:none"
           id="path3173"
           sodipodi:cx="12"
           sodipodi:cy="-11.999992"
           sodipodi:rx="12"
           sodipodi:ry="12"
           d="M 24,-11.999992 C 24,-5.3725754 18.627417,7.6293945e-6 12,7.6293945e-6 5.372583,7.6293945e-6 0,-5.3725754 0,-11.999992 c 0,-6.627417 5.372583,-12 12,-12 6.627417,0 12,5.372583 12,12 z"
           transform="translate(447.03758,316.11218)" />
        <path
           sodipodi:type="arc"
           style="fill:#e6e6e6;fill-opacity:1;stroke:none"
           id="path3177"
           sodipodi:cx="12"
           sodipodi:cy="-11.999992"
           sodipodi:rx="12"
           sodipodi:ry="12"
           d="M 24,-11.999992 C 24,-5.3725754 18.627417,7.6293945e-6 12,7.6293945e-6 5.372583,7.6293945e-6 0,-5.3725754 0,-11.999992 c 0,-6.627417 5.372583,-12 12,-12 6.627417,0 12,5.372583 12,12 z"
           transform="translate(495.03758,316.11218)" />
        <path
           sodipodi:type="arc"
           style="fill:#e6e6e6;fill-opacity:1;stroke:none"
           id="path3181"
           sodipodi:cx="12"
           sodipodi:cy="-11.999992"
           sodipodi:rx="12"
           sodipodi:ry="12"
           d="M 12,7.6293945e-6 C 5.3725833,7.8069755e-6 1.7758096e-7,-5.3725751 0,-11.999992 c -1.7758095e-7,-6.627417 5.3725827,-12 12,-12 0,0 0,0 0,0 l 0,12 z"
           transform="translate(543.03758,316.11218)"
           sodipodi:start="1.5707963"
           sodipodi:end="4.712389" />
        <path
           sodipodi:type="arc"
           style="fill:#e6e6e6;fill-opacity:1;stroke:none"
           id="path3185"
           sodipodi:cx="12"
           sodipodi:cy="-11.999992"
           sodipodi:rx="12"
           sodipodi:ry="12"
           d="M 12,7.6293945e-6 C 5.3725833,7.8069755e-6 1.7758096e-7,-5.3725751 0,-11.999992 c -1.7758095e-7,-6.627417 5.3725827,-12 12,-12 0,0 0,0 0,0 l 0,12 z"
           transform="translate(579.03758,316.11217)"
           sodipodi:start="1.5707963"
           sodipodi:end="4.712389" />
        <path
           sodipodi:type="arc"
           style="fill:#e6e6e6;fill-opacity:1;stroke:none"
           id="path3189"
           sodipodi:cx="12"
           sodipodi:cy="-11.999992"
           sodipodi:rx="12"
           sodipodi:ry="12"
           d="M 24,-11.999992 C 24,-5.3725754 18.627417,7.6293945e-6 12,7.6293945e-6 5.372583,7.6293945e-6 0,-5.3725754 0,-11.999992 c 0,-6.627417 5.372583,-12 12,-12 6.627417,0 12,5.372583 12,12 z"
           transform="translate(621.03758,316.11217)" />
        <path
           sodipodi:type="arc"
           style="fill:#e6e6e6;fill-opacity:1;stroke:none"
           id="path3203"
           sodipodi:cx="12"
           sodipodi:cy="-11.999992"
           sodipodi:rx="12"
           sodipodi:ry="12"
           d="M 24,-11.999992 C 24,-5.3725754 18.627417,7.6293945e-6 12,7.6293945e-6 5.372583,7.6293945e-6 0,-5.3725754 0,-11.999992 c 0,-6.627417 5.372583,-12 12,-12 6.627417,0 12,5.372583 12,12 z"
           transform="translate(207.03758,316.11218)" />
        <path
           sodipodi:end="4.712389"
           sodipodi:start="1.5707963"
           transform="translate(585.03758,316.11217)"
           d="M 12,7.6293945e-6 C 5.3725833,7.8069755e-6 1.7758096e-7,-5.3725751 0,-11.999992 c -1.7758095e-7,-6.627417 5.3725827,-12 12,-12 0,0 0,0 0,0 l 0,12 z"
           sodipodi:ry="12"
           sodipodi:rx="12"
           sodipodi:cy="-11.999992"
           sodipodi:cx="12"
           id="path3368"
           style="fill:#e6e6e6;fill-opacity:1;stroke:none"
           sodipodi:type="arc" />
      </g>
    </g>
    <rect
       style="fill:#f9f9f9;fill-opacity:1;stroke:none"
       id="rect4148"
       width="440"
       height="7"
       x="223.03758"
       y="397.11221"
       ry="0" />
    <g
       transform="matrix(0,1,-1,0,564.14977,-49.92538)"
       id="g4150">
      <g
         id="g4152">
        <path
           sodipodi:type="arc"
           style="fill:#ffffff;fill-opacity:1;stroke:none"
           id="path4160"
           sodipodi:cx="12"
           sodipodi:cy="-11.999992"
           sodipodi:rx="12"
           sodipodi:ry="12"
           d="M 24,-11.999992 C 24,-5.3725754 18.627417,7.6293945e-6 12,7.6293945e-6 5.372583,7.6293945e-6 0,-5.3725754 0,-11.999992 c 0,-6.627417 5.372583,-12 12,-12 6.627417,0 12,5.372583 12,12 z"
           transform="translate(375.03758,316.11218)" />
        <path
           sodipodi:type="arc"
           style="fill:#ffffff;fill-opacity:1;stroke:none"
           id="path4162"
           sodipodi:cx="12"
           sodipodi:cy="-11.999992"
           sodipodi:rx="12"
           sodipodi:ry="12"
           d="M 24,-11.999992 C 24,-5.3725754 18.627417,7.6293945e-6 12,7.6293945e-6 5.372583,7.6293945e-6 0,-5.3725754 0,-11.999992 c 0,-6.627417 5.372583,-12 12,-12 6.627417,0 12,5.372583 12,12 z"
           transform="translate(423.03758,316.11218)" />
        <path
           sodipodi:type="arc"
           style="fill:#ffffff;fill-opacity:1;stroke:none"
           id="path4164"
           sodipodi:cx="12"
           sodipodi:cy="-11.999992"
           sodipodi:rx="12"
           sodipodi:ry="12"
           d="M 12,7.6293945e-6 C 5.3725833,7.8069755e-6 1.7758096e-7,-5.3725751 0,-11.999992 c -1.7758095e-7,-6.627417 5.3725827,-12 12,-12 0,0 0,0 0,0 l 0,12 z"
           transform="translate(471.03758,316.11218)"
           sodipodi:start="1.5707963"
           sodipodi:end="4.712389" />
      </g>
      <g
         id="g4172">
        <path
           transform="translate(399.03758,316.11218)"
           d="M 24,-11.999992 C 24,-5.3725754 18.627417,7.6293945e-6 12,7.6293945e-6 5.372583,7.6293945e-6 0,-5.3725754 0,-11.999992 c 0,-6.627417 5.372583,-12 12,-12 6.627417,0 12,5.372583 12,12 z"
           sodipodi:ry="12"
           sodipodi:rx="12"
           sodipodi:cy="-11.999992"
           sodipodi:cx="12"
           id="path4180"
           style="fill:#e6e6e6;fill-opacity:1;stroke:none"
           sodipodi:type="arc" />
        <path
           transform="translate(447.03758,316.11218)"
           d="M 24,-11.999992 C 24,-5.3725754 18.627417,7.6293945e-6 12,7.6293945e-6 5.372583,7.6293945e-6 0,-5.3725754 0,-11.999992 c 0,-6.627417 5.372583,-12 12,-12 6.627417,0 12,5.372583 12,12 z"
           sodipodi:ry="12"
           sodipodi:rx="12"
           sodipodi:cy="-11.999992"
           sodipodi:cx="12"
           id="path4182"
           style="fill:#e6e6e6;fill-opacity:1;stroke:none"
           sodipodi:type="arc" />
      </g>
    </g>
    <rect
       style="fill:#ffffff;fill-opacity:1;stroke:none"
       id="rect3030"
       width="46.25"
       height="84"
       x="285.78757"
       y="347.11221"
       ry="0" />
    <rect
       ry="0"
       y="324.11221"
       x="223.03758"
       height="109.99999"
       width="439.99997"
       id="rect3806"
       style="fill:#ffffff;fill-opacity:1;stroke:none" />
    <g
       id="g3832"
       inkscape:transform-center-y="10.23169"
       transform="matrix(0.8660254,-0.5,0.5,0.8660254,-150.04906,203.78079)"
       style="fill:#88aa00;fill-opacity:1"
       inkscape:transform-center-x="-2.533271">
      <g
         id="g4142"
         inkscape:transform-center-y="13.000002"
         style="fill:#88aa00;fill-opacity:1">
        <g
           id="g3010"
           style="fill:#88aa00;fill-opacity:1"
           transform="matrix(0.70710678,0.62536818,-0.70710678,0.62536818,376.20887,-35.223082)">
          <g
             id="g3014"
             style="fill:#88aa00;fill-opacity:1">
            <rect
               style="fill:#88aa00;fill-opacity:1;stroke:none"
               id="rect3006"
               width="7.9999995"
               height="36.18256"
               x="-74.168289"
               y="492.23566"
               ry="3.9999998"
               inkscape:transform-center-y="21.655143"
               transform="matrix(0.70710678,-0.70710678,0.70710678,0.70710678,0,0)"
               inkscape:transform-center-x="-21.655139" />
          </g>
        </g>
        <path
           style="fill:#88aa00;fill-opacity:1;stroke:none"
           d="m 85.0625,41 c -11.045695,0 -20,8.954305 -20,20 0,11.045695 8.954305,20 20,20 11.045695,0 20,-8.954305 20,-20 0,-11.045695 -8.954305,-20 -20,-20 z m 0,7.28125 c 7.029436,0 12.75,5.689314 12.75,12.71875 0,7.029436 -5.720564,12.71875 -12.75,12.71875 -7.029436,0 -12.71875,-5.689314 -12.71875,-12.71875 0,-7.029436 5.689314,-12.71875 12.71875,-12.71875 z"
           transform="translate(221.04059,325.11218)"
           id="path3818"
           inkscape:connector-curvature="0" />
      </g>
    </g>
    <text
       sodipodi:linespacing="125%"
       id="text2996"
       y="405.11221"
       x="245.76251"
       style="font-size:72px;font-style:normal;font-variant:normal;font-weight:bold;font-stretch:normal;line-height:125%;letter-spacing:0px;word-spacing:0px;fill:#777777;fill-opacity:1;stroke:none;font-family:ae_Furat;-inkscape-font-specification:ae_Furat Bold"
       xml:space="preserve"><tspan
         style="font-size:72px;font-style:normal;font-variant:normal;font-weight:bold;font-stretch:normal;text-align:start;line-height:125%;writing-mode:lr-tb;text-anchor:start;font-family:Comfortaa;-inkscape-font-specification:Comfortaa Bold;fill:#777777;fill-opacity:1"
         y="405.11221"
         x="245.76251"
         id="tspan2998"
         sodipodi:role="line">P</tspan></text>
    <text
       sodipodi:linespacing="125%"
       id="text3004"
       y="405.11221"
       x="335.03757"
       style="font-size:72px;font-style:normal;font-variant:normal;font-weight:bold;font-stretch:normal;line-height:125%;letter-spacing:0px;word-spacing:0px;fill:#777777;fill-opacity:1;stroke:none;font-family:ae_Furat;-inkscape-font-specification:ae_Furat Bold"
       xml:space="preserve"><tspan
         style="font-size:72px;font-style:normal;font-variant:normal;font-weight:bold;font-stretch:normal;text-align:start;line-height:125%;writing-mode:lr-tb;text-anchor:start;font-family:Comfortaa;-inkscape-font-specification:Comfortaa Bold;fill:#777777;fill-opacity:1"
         y="405.11221"
         x="335.03757"
         id="tspan3006"
         sodipodi:role="line">d</tspan></text>
    <text
       sodipodi:linespacing="125%"
       id="text3008"
       y="405.11221"
       x="386.03757"
       style="font-size:72px;font-style:normal;font-variant:normal;font-weight:bold;font-stretch:normal;line-height:125%;letter-spacing:0px;word-spacing:0px;fill:#777777;fill-opacity:1;stroke:none;font-family:ae_Furat;-inkscape-font-specification:ae_Furat Bold"
       xml:space="preserve"><tspan
         style="font-size:72px;font-style:normal;font-variant:normal;font-weight:bold;font-stretch:normal;text-align:start;line-height:125%;writing-mode:lr-tb;text-anchor:start;font-family:Comfortaa;-inkscape-font-specification:Comfortaa Bold;fill:#777777;fill-opacity:1"
         y="405.11221"
         x="386.03757"
         id="tspan3010"
         sodipodi:role="line">S</tspan></text>
    <text
       sodipodi:linespacing="125%"
       id="text3012"
       y="405.11221"
       x="429.59653"
       style="font-size:72px;font-style:normal;font-variant:normal;font-weight:bold;font-stretch:normal;line-height:125%;letter-spacing:0px;word-spacing:0px;fill:#777777;fill-opacity:1;stroke:none;font-family:ae_Furat;-inkscape-font-specification:ae_Furat Bold"
       xml:space="preserve"><tspan
         style="font-size:72px;font-style:normal;font-variant:normal;font-weight:bold;font-stretch:normal;text-align:start;line-height:125%;writing-mode:lr-tb;text-anchor:start;font-family:Comfortaa;-inkscape-font-specification:Comfortaa Bold;fill:#777777;fill-opacity:1"
         y="405.11221"
         x="429.59653"
         id="tspan3014"
         sodipodi:role="line">e</tspan></text>
    <text
       sodipodi:linespacing="125%"
       id="text3016"
       y="405.11221"
       x="478.03757"
       style="font-size:72px;font-style:normal;font-variant:normal;font-weight:bold;font-stretch:normal;line-height:125%;letter-spacing:0px;word-spacing:0px;fill:#777777;fill-opacity:1;stroke:none;font-family:ae_Furat;-inkscape-font-specification:ae_Furat Bold"
       xml:space="preserve"><tspan
         style="font-size:72px;font-style:normal;font-variant:normal;font-weight:bold;font-stretch:normal;text-align:start;line-height:125%;writing-mode:lr-tb;text-anchor:start;font-family:Comfortaa;-inkscape-font-specification:Comfortaa Bold;fill:#777777;fill-opacity:1"
         y="405.11221"
         x="478.03757"
         id="tspan3018"
         sodipodi:role="line">a</tspan></text>
    <text
       sodipodi:linespacing="125%"
       id="text3020"
       y="405.11221"
       x="526.0376"
       style="font-size:72px;font-style:normal;font-variant:normal;font-weight:bold;font-stretch:normal;line-height:125%;letter-spacing:0px;word-spacing:0px;fill:#777777;fill-opacity:1;stroke:none;font-family:ae_Furat;-inkscape-font-specification:ae_Furat Bold"
       xml:space="preserve"><tspan
         style="font-size:72px;font-style:normal;font-variant:normal;font-weight:bold;font-stretch:normal;text-align:start;line-height:125%;writing-mode:lr-tb;text-anchor:start;font-family:Comfortaa;-inkscape-font-specification:Comfortaa Bold;fill:#777777;fill-opacity:1"
         y="405.11221"
         x="526.0376"
         id="tspan3022"
         sodipodi:role="line">r</tspan></text>
    <text
       sodipodi:linespacing="125%"
       id="text3024"
       y="405.11221"
       x="561.0376"
       style="font-size:72px;font-style:normal;font-variant:normal;font-weight:bold;font-stretch:normal;line-height:125%;letter-spacing:0px;word-spacing:0px;fill:#777777;fill-opacity:1;stroke:none;font-family:ae_Furat;-inkscape-font-specification:ae_Furat Bold"
       xml:space="preserve"><tspan
         style="font-size:72px;font-style:normal;font-variant:normal;font-weight:bold;font-stretch:normal;text-align:start;line-height:125%;writing-mode:lr-tb;text-anchor:start;font-family:Comfortaa;-inkscape-font-specification:Comfortaa Bold;fill:#777777;fill-opacity:1"
         y="405.11221"
         x="561.0376"
         id="tspan3026"
         sodipodi:role="line">c</tspan></text>
    <text
       sodipodi:linespacing="125%"
       id="text3028"
       y="405.11221"
       x="605.0376"
       style="font-size:72px;font-style:normal;font-variant:normal;font-weight:bold;font-stretch:normal;line-height:125%;letter-spacing:0px;word-spacing:0px;fill:#777777;fill-opacity:1;stroke:none;font-family:ae_Furat;-inkscape-font-specification:ae_Furat Bold"
       xml:space="preserve"><tspan
         style="font-size:72px;font-style:normal;font-variant:normal;font-weight:bold;font-stretch:normal;text-align:start;line-height:125%;writing-mode:lr-tb;text-anchor:start;font-family:Comfortaa;-inkscape-font-specification:Comfortaa Bold;fill:#777777;fill-opacity:1"
         y="405.11221"
         x="605.0376"
         id="tspan3030"
         sodipodi:role="line">h</tspan></text>
  </g>
</svg>
