<?xml version="1.0" encoding="UTF-8" standalone="no"?>
<!-- Created with Inkscape (http://www.inkscape.org/) -->

<svg
   xmlns:dc="http://purl.org/dc/elements/1.1/"
   xmlns:cc="http://creativecommons.org/ns#"
   xmlns:rdf="http://www.w3.org/1999/02/22-rdf-syntax-ns#"
   xmlns:svg="http://www.w3.org/2000/svg"
   xmlns="http://www.w3.org/2000/svg"
   xmlns:sodipodi="http://sodipodi.sourceforge.net/DTD/sodipodi-0.dtd"
   xmlns:inkscape="http://www.inkscape.org/namespaces/inkscape"
   id="svg2"
   version="1.1"
   inkscape:version="0.48.2 r9819"
   width="350.88751"
   height="143.81618"
   xml:space="preserve"
   sodipodi:docname="Uniol_1c_WEISS.svg"><metadata
     id="metadata8"><rdf:RDF><cc:Work
         rdf:about=""><dc:format>image/svg+xml</dc:format><dc:type
           rdf:resource="http://purl.org/dc/dcmitype/StillImage" /><dc:title></dc:title></cc:Work></rdf:RDF></metadata><defs
     id="defs6"><clipPath
       clipPathUnits="userSpaceOnUse"
       id="clipPath18"><path
         d="M 0,440.891 0,0 l 1403.55,0 0,440.891 -1403.55,0 z"
         id="path20"
         inkscape:connector-curvature="0" /></clipPath></defs><sodipodi:namedview
     pagecolor="#ffffff"
     bordercolor="#666666"
     borderopacity="1"
     objecttolerance="10"
     gridtolerance="10"
     guidetolerance="10"
     inkscape:pageopacity="0"
     inkscape:pageshadow="2"
     inkscape:window-width="1366"
     inkscape:window-height="746"
     id="namedview4"
     showgrid="false"
     inkscape:zoom="1.7997221"
     inkscape:cx="175.44377"
     inkscape:cy="71.908093"
     inkscape:window-x="0"
     inkscape:window-y="0"
     inkscape:window-maximized="1"
     inkscape:current-layer="g10"
     fit-margin-top="40"
     fit-margin-left="0"
     fit-margin-right="0"
     fit-margin-bottom="0" /><g
     id="g10"
     inkscape:groupmode="layer"
     inkscape:label="ink_ext_XXXXXX"
     transform="matrix(1.25,0,0,-1.25,87.721875,117.86213)"><g
       id="g12"
       transform="matrix(0.2,0,0,0.2,-70.1775,-20.76324)"><g
         id="g14"><g
           id="g16"
           clip-path="url(#clipPath18)"><path
             d="m 57.4609,156.184 -7.6367,-40.293 c -1.3476,-6.993 -2.207,-13.067 -2.8906,-18.1254 l -12.4414,0 1.2695,10.1834 -0.2344,0.031 C 29.8828,100.363 22.5391,96.4453 15.1953,96.4453 6.66016,96.4453 0,100.996 0,113.035 c 0,3.039 0.390625,6.399 1.15234,10.356 l 6.25,32.793 13.96486,0 -6.0352,-31.848 c -0.5664,-2.949 -0.9375,-5.801 -0.9375,-8.106 0,-4.765 1.9532,-8.269 7.4219,-8.269 6.4844,0 13.9844,7.684 16.3086,19.851 l 5.3711,28.372 13.9648,0"
             style="fill:#ffffff;fill-opacity:1;fill-rule:nonzero;stroke:none"
             id="path22"
             inkscape:connector-curvature="0" /><path
             d="m 74.3164,97.7656 7.5977,40.2934 c 1.3867,7 2.2461,13.062 2.9882,18.125 l 12.4219,0 -1.289,-10.489 0.2343,0 c 5.3905,7.871 12.8905,11.805 20.9965,11.805 8.379,0 14.882,-5.02 14.882,-16.082 0,-2.617 -0.488,-6.68 -1.015,-9.641 l -6.465,-34.0114 -13.984,0 6.23,32.9574 c 0.391,2.148 0.723,4.668 0.723,6.965 0,4.882 -1.797,8.425 -7.325,8.425 -6.308,0 -14.4526,-7.715 -16.9722,-21.308 l -5.0586,-27.0394 -13.9648,0"
             style="fill:#ffffff;fill-opacity:1;fill-rule:nonzero;stroke:none"
             id="path24"
             inkscape:connector-curvature="0" /><path
             d="m 166.289,97.7656 11.133,58.4184 -13.984,0 -11.114,-58.4184 13.965,0"
             style="fill:#ffffff;fill-opacity:1;fill-rule:nonzero;stroke:none"
             id="path26"
             inkscape:connector-curvature="0" /><path
             d="m 211.914,156.184 3.711,-29.024 c 0.723,-6.926 1.426,-11.367 1.699,-15.215 l 0.371,0 c 1.426,3.7 3.125,7.891 6.387,14.84 l 14.473,29.399 15.527,0 -32.5,-58.4184 -14.082,0 -9.961,58.4184 14.375,0"
             style="fill:#ffffff;fill-opacity:1;fill-rule:nonzero;stroke:none"
             id="path28"
             inkscape:connector-curvature="0" /><path
             d="m 303.066,141.113 c 0,3.645 -2.968,5.949 -7.461,5.949 -8.671,0 -14.453,-7.824 -16.171,-14.894 14.414,-0.164 23.632,1.797 23.632,8.828 l 0,0.117 z m 5.899,-40 c -5.742,-2.9958 -13.613,-4.6091 -20.703,-4.6091 -16.172,0 -23.907,9.9491 -23.907,24.1601 0,17.688 12.989,36.836 33.047,36.836 11.524,0 18.907,-6.641 18.926,-16.387 0,-15.058 -15.742,-19.871 -38.32,-19.343 -0.196,-2.051 0.293,-5.958 1.543,-8.293 2.304,-3.985 6.523,-5.977 11.992,-5.977 6.582,0 11.934,1.711 16.094,3.828 l 1.328,-10.215"
             style="fill:#ffffff;fill-opacity:1;fill-rule:nonzero;stroke:none"
             id="path30"
             inkscape:connector-curvature="0" /><path
             d="m 332.617,97.7656 6.836,36.0434 c 1.543,8.269 2.363,17.168 2.988,22.375 l 12.168,0 c -0.39,-3.996 -0.761,-8 -1.328,-12.297 l 0.371,0 c 3.985,7.871 10.371,13.613 18.301,13.613 1.016,0 2.149,-0.051 3.047,-0.164 l -2.715,-13.684 c -0.742,0.098 -1.66,0.149 -2.734,0.149 -9.922,0 -16.231,-10.102 -18.535,-22.512 l -4.434,-23.5234 -13.965,0"
             style="fill:#ffffff;fill-opacity:1;fill-rule:nonzero;stroke:none"
             id="path32"
             inkscape:connector-curvature="0" /><path
             d="m 387.656,110.793 c 3.067,-1.652 8.75,-3.879 14.024,-3.859 5.703,0.019 9.043,3.261 9.043,7.199 0,3.621 -1.953,5.996 -7.657,8.953 -6.738,3.555 -11.543,8.547 -11.543,15.234 0,11.25 9.844,19.18 23.653,19.18 6.133,0 11.172,-1.406 13.73,-2.957 l -3.515,-10.098 c -2.266,1.153 -6.172,2.598 -10.957,2.598 -5.254,0 -8.848,-2.797 -8.848,-6.758 0,-3.262 2.559,-5.519 7.519,-8.058 6.426,-3.379 12.09,-8.309 12.09,-15.735 0,-12.879 -10.742,-20.0858 -24.804,-19.9881 -6.875,0.0977 -13.262,2.0039 -16.348,4.3161 l 3.613,9.973"
             style="fill:#ffffff;fill-opacity:1;fill-rule:nonzero;stroke:none"
             id="path34"
             inkscape:connector-curvature="0" /><path
             d="m 445.801,97.7656 11.133,58.4184 13.964,0 -11.113,-58.4184 -13.984,0"
             style="fill:#ffffff;fill-opacity:1;fill-rule:nonzero;stroke:none"
             id="path36"
             inkscape:connector-curvature="0" /><path
             d="m 517.383,171.191 -2.813,-15.007 13.125,0 -2.109,-10.754 -13.145,0 -4.57,-23.614 c -0.547,-2.734 -1.055,-5.761 -1.055,-8.261 0,-3.145 1.426,-5.243 5.215,-5.243 1.641,0.008 3.321,0.079 4.727,0.34 l -1.309,-10.9567 c -2.031,-0.7891 -5.722,-1.1914 -9.062,-1.1914 -9.668,0 -13.907,5.3051 -13.907,12.0121 0,3.293 0.372,6.535 1.25,10.89 l 5.04,26.024 -7.872,0 2.051,10.754 7.891,0 2.07,10.878 14.473,4.129"
             style="fill:#ffffff;fill-opacity:1;fill-rule:nonzero;stroke:none"
             id="path38"
             inkscape:connector-curvature="0" /><path
             d="m 591.172,97.7656 c -0.234,6.9224 0.742,17.9294 2.402,26.6294 l 5.86,30.5 c -4.414,1.425 -11.27,2.605 -17.618,2.605 -27.246,0 -41.171,-21.199 -41.171,-41.18 0,-11.703 6.855,-19.8747 17.265,-19.8747 7.461,0 15.195,3.6717 21.094,14.4647 l 0.273,0 c -0.507,-5.012 -0.957,-9.687 -1.015,-13.1444 l 12.91,0 z m -1.563,66.2774 c 4.219,0 7.52,3.117 7.52,7.637 0,3.816 -2.617,6.836 -6.738,6.836 -4.219,0 -7.618,-3.192 -7.618,-7.676 0,-4.082 3.047,-6.797 6.719,-6.797 l 0.117,0 z m -23.261,0 c 4.218,0 7.5,3.117 7.5,7.637 0,3.816 -2.618,6.836 -6.719,6.836 -4.238,0 -7.637,-3.192 -7.637,-7.676 0,-4.082 3.047,-6.797 6.719,-6.797 l 0.137,0 z m 14.511,-33.309 c -2.714,-14.855 -10.742,-22.961 -17.324,-22.961 -6.055,0 -8.379,5.02 -8.359,11.114 0.039,13.273 10.039,27.832 22.949,27.832 2.461,0 4.238,-0.274 5.586,-0.645 l -2.852,-15.34"
             style="fill:#ffffff;fill-opacity:1;fill-rule:nonzero;stroke:none"
             id="path40"
             inkscape:connector-curvature="0" /><path
             d="m 646.035,171.191 -2.812,-15.007 13.125,0 -2.11,-10.754 -13.144,0 -4.571,-23.614 c -0.546,-2.734 -1.054,-5.761 -1.054,-8.261 0,-3.145 1.426,-5.243 5.234,-5.243 1.641,0.008 3.301,0.079 4.707,0.34 l -1.308,-10.9567 c -2.032,-0.7891 -5.723,-1.1914 -9.063,-1.1914 -9.668,0 -13.906,5.3051 -13.906,12.0121 0,3.293 0.371,6.535 1.25,10.89 l 5.058,26.024 -7.871,0 2.032,10.754 7.91,0 2.07,10.878 14.453,4.129"
             style="fill:#ffffff;fill-opacity:1;fill-rule:nonzero;stroke:none"
             id="path42"
             inkscape:connector-curvature="0" /><path
             d="m 757.285,96.8164 c 15.508,0 27.481,10.9686 27.481,30.6836 0,16.926 -10.157,29.523 -26.739,29.523 -16.093,0 -27.441,-12.453 -27.441,-30.578 0,-17.293 10.547,-29.6286 26.621,-29.6286 l 0.078,0 z m 0.235,7.5706 c -10.84,0 -17.09,10.41 -17.071,22.293 -0.019,11.992 5.821,22.765 17.207,22.765 11.387,0 17.071,-11.078 17.071,-22.316 0,-12.606 -6.172,-22.742 -17.129,-22.742 l -0.078,0"
             style="fill:#ffffff;fill-opacity:1;fill-rule:nonzero;stroke:none"
             id="path44"
             inkscape:connector-curvature="0" /><path
             d="m 820.098,156.066 9.433,0 0,-50.382 24.356,0 0,-7.9184 -33.789,0 0,58.3004"
             style="fill:#ffffff;fill-opacity:1;fill-rule:nonzero;stroke:none"
             id="path46"
             inkscape:connector-curvature="0" /><path
             d="m 887.988,97.9414 c 3.633,-0.4414 8.242,-0.7226 14.121,-0.7226 11.329,0 20.469,2.8012 26.172,8.1252 5.469,5.164 8.809,12.89 8.809,22.984 0,9.699 -3.281,16.692 -8.789,21.34 -5.254,4.59 -12.813,6.855 -23.692,6.855 -6.171,0 -11.914,-0.488 -16.621,-1.257 l 0,-57.3246 z m 9.434,50.5076 c 1.738,0.36 4.316,0.684 7.89,0.684 14.356,0 21.915,-7.68 21.836,-21.137 0,-15.152 -8.398,-23.348 -23.144,-23.289 -2.442,0 -4.922,0.039 -6.582,0.313 l 0,43.429"
             style="fill:#ffffff;fill-opacity:1;fill-rule:nonzero;stroke:none"
             id="path48"
             inkscape:connector-curvature="0" /><path
             d="m 1004.08,124.211 -22.225,0 0,-18.664 24.865,0 0,-7.7814 -34.298,0 0,58.3004 32.988,0 0,-7.785 -23.555,0 0,-16.355 22.225,0 0,-7.715"
             style="fill:#ffffff;fill-opacity:1;fill-rule:nonzero;stroke:none"
             id="path50"
             inkscape:connector-curvature="0" /><path
             d="m 1042.11,97.7656 0,58.3004 10.64,0 16.49,-26.769 c 4,-6.602 7.4,-13.113 10.12,-19.324 l 0.19,0.066 c -0.72,7.766 -0.9,15.109 -0.9,24.074 l 0,21.953 8.77,0 0,-58.3004 -9.71,0 -16.52,27.1834 c -3.83,6.449 -7.71,13.371 -10.6,19.875 l -0.28,-0.066 c 0.45,-7.5 0.57,-14.934 0.57,-24.531 l 0,-22.4614 -8.77,0"
             style="fill:#ffffff;fill-opacity:1;fill-rule:nonzero;stroke:none"
             id="path52"
             inkscape:connector-curvature="0" /><path
             d="m 1135.29,148.965 c 1.17,0.265 3.05,0.5 6.33,0.5 7.07,0 11.6,-2.61 11.6,-8.586 0,-5.215 -4.33,-8.973 -11.91,-8.973 l -6.02,0 0,17.059 z m -9.37,-51.0236 c 2.67,-0.332 6.89,-0.7226 12.54,-0.7226 10.23,0 16.97,1.7656 21.07,5.4182 3.2,2.812 5.33,6.769 5.33,11.875 0,8.3 -5.97,13.039 -11.89,14.511 l 0,0.223 c 6.27,2.27 9.76,7.18 9.76,12.649 0,4.824 -2.18,8.468 -5.56,10.714 -3.83,2.793 -8.69,3.914 -16.41,3.914 -5.68,0 -11.46,-0.546 -14.84,-1.257 l 0,-57.3246 z m 9.37,27.0506 5.69,0 c 7.65,-0.012 13.98,-3.008 13.98,-10.234 0,-7.696 -6.54,-10.383 -13.75,-10.383 -2.56,0 -4.47,0.059 -5.92,0.344 l 0,20.273"
             style="fill:#ffffff;fill-opacity:1;fill-rule:nonzero;stroke:none"
             id="path54"
             inkscape:connector-curvature="0" /><path
             d="m 1210.02,156.066 0,-34.211 c 0,-12.031 5.14,-17.421 12.6,-17.421 8.04,0 13.04,5.437 13.04,17.421 l 0,34.211 9.44,0 0,-33.586 c 0,-17.937 -9.32,-25.6636 -22.83,-25.6636 -12.84,0 -21.7,7.2456 -21.7,25.4996 l 0,33.75 9.45,0"
             style="fill:#ffffff;fill-opacity:1;fill-rule:nonzero;stroke:none"
             id="path56"
             inkscape:connector-curvature="0" /><path
             d="m 1283.55,97.7656 9.36,0 0,24.4724 6.07,0 c 6.35,-0.176 9.26,-2.89 10.96,-10.636 1.62,-7.278 2.99,-12.1489 3.89,-13.8364 l 9.71,0 c -1.18,2.2734 -2.68,8.5234 -4.56,16.1524 -1.44,5.809 -3.98,9.902 -8.3,11.492 l 0,0.227 c 5.75,2 10.77,7.117 10.77,14.687 0,4.824 -1.78,8.836 -4.85,11.453 -3.81,3.293 -9.35,4.746 -17.56,4.746 -5.78,0 -11.54,-0.507 -15.49,-1.257 l 0,-57.5004 z m 9.36,50.9964 c 1.17,0.293 3.48,0.586 6.95,0.586 7.31,-0.024 12.17,-3.125 12.17,-9.953 0,-6.141 -4.71,-10.176 -12.26,-10.176 l -6.86,0 0,19.543"
             style="fill:#ffffff;fill-opacity:1;fill-rule:nonzero;stroke:none"
             id="path58"
             inkscape:connector-curvature="0" /><path
             d="m 1403.55,100.41 c -3.61,-1.3162 -10.64,-3.2303 -18.45,-3.2303 -9.44,0 -16.86,2.3828 -22.42,7.7423 -5.14,4.914 -8.19,12.617 -8.17,21.516 0.04,18.054 12.74,30.214 32.11,30.214 7.01,0 12.5,-1.464 15.14,-2.714 l -2.17,-7.618 c -3.16,1.407 -7.05,2.489 -13.13,2.489 -13.08,0 -22.05,-7.93 -22.05,-21.883 0,-13.867 8.44,-22.055 21.14,-22.055 4.27,0 7.3,0.578 8.83,1.32 l 0,15.676 -10.88,0 0,7.442 20.05,0 0,-28.899"
             style="fill:#ffffff;fill-opacity:1;fill-rule:nonzero;stroke:none"
             id="path60"
             inkscape:connector-curvature="0" /><path
             d="m 3.36719,325.754 3.14453,-9.492 C 330.254,423.75 650.574,405.148 690.586,402.297 c 0,-9.074 0,-402.297 0,-402.297 l 10,0 0,411.516 -4.563,0.398 c -3.425,0.305 -346.304,28.828 -692.65581,-86.16"
             style="fill:#ffffff;fill-opacity:1;fill-rule:nonzero;stroke:none"
             id="path62"
             inkscape:connector-curvature="0" /><path
             d="m 497.129,316.934 c -1.859,-0.961 -5.758,-1.918 -10.68,-1.918 -11.398,0 -19.922,7.195 -19.922,20.515 0,12.723 8.586,21.242 21.125,21.242 4.981,0 8.215,-1.078 9.598,-1.796 l -1.316,-4.262 c -1.926,0.961 -4.743,1.68 -8.102,1.68 -9.48,0 -15.781,-6.063 -15.781,-16.68 0,-9.961 5.699,-16.262 15.476,-16.262 3.243,0 6.481,0.66 8.582,1.68 l 1.02,-4.199"
             style="fill:#ffffff;fill-opacity:1;fill-rule:nonzero;stroke:none"
             id="path64"
             inkscape:connector-curvature="0" /><path
             d="m 541.77,332.477 -4.02,11.64 c -0.84,2.637 -1.441,5.039 -2.043,7.379 l -0.18,0 c -0.539,-2.34 -1.195,-4.859 -1.976,-7.32 l -3.961,-11.699 12.18,0 z m -13.258,-4.082 -4.2,-12.719 -5.402,0 13.742,40.437 6.297,0 13.801,-40.437 -5.582,0 -4.316,12.719 -14.34,0"
             style="fill:#ffffff;fill-opacity:1;fill-rule:nonzero;stroke:none"
             id="path66"
             inkscape:connector-curvature="0" /><path
             d="m 581.91,337.152 5.34,0 c 5.582,0 9.117,3.063 9.117,7.684 0,5.219 -3.777,7.5 -9.297,7.5 -2.519,0 -4.261,-0.242 -5.16,-0.481 l 0,-14.703 z m -5.222,18.36 c 2.644,0.543 6.48,0.906 10.023,0.906 5.578,0 9.234,-1.086 11.762,-3.367 1.976,-1.739 3.175,-4.496 3.175,-7.676 0,-5.281 -3.421,-8.82 -7.621,-10.262 l 0,-0.175 c 3.063,-1.086 4.922,-3.965 5.946,-8.165 1.316,-5.64 2.277,-9.543 3.054,-11.097 l -5.394,0 c -0.664,1.136 -1.563,4.617 -2.645,9.656 -1.199,5.582 -3.422,7.68 -8.156,7.863 l -4.922,0 0,-17.519 -5.222,0 0,39.836"
             style="fill:#ffffff;fill-opacity:1;fill-rule:nonzero;stroke:none"
             id="path68"
             inkscape:connector-curvature="0" /><path
             d="m 626.91,356.113 5.278,0 0,-36.058 17.281,0 0,-4.379 -22.559,0 0,40.437"
             style="fill:#ffffff;fill-opacity:1;fill-rule:nonzero;stroke:none"
             id="path70"
             inkscape:connector-curvature="0" /><path
             d="m 513.629,257.676 -13.258,40.441 5.699,0 6.297,-19.922 c 1.68,-5.461 3.184,-10.441 4.321,-15.121 l 0.124,0 c 1.137,4.68 2.758,9.781 4.618,15.063 l 6.84,19.98 5.578,0 -14.457,-40.441 -5.762,0"
             style="fill:#ffffff;fill-opacity:1;fill-rule:nonzero;stroke:none"
             id="path72"
             inkscape:connector-curvature="0" /><path
             d="m 572.012,261.273 c 8.277,0 12.961,7.618 12.961,16.801 0,8.039 -4.203,16.442 -12.903,16.442 -8.703,0 -13.023,-8.098 -13.023,-16.86 0,-8.519 4.683,-16.383 12.902,-16.383 l 0.063,0 z m -0.242,-4.261 c -10.739,0 -18.18,8.281 -18.18,20.523 0,12.84 7.918,21.238 18.719,21.238 11.097,0 18.242,-8.461 18.242,-20.457 0,-13.863 -8.461,-21.304 -18.719,-21.304 l -0.062,0"
             style="fill:#ffffff;fill-opacity:1;fill-rule:nonzero;stroke:none"
             id="path74"
             inkscape:connector-curvature="0" /><path
             d="m 615.328,257.676 0,40.441 5.762,0 12.898,-20.461 c 2.942,-4.742 5.344,-8.941 7.203,-13.144 l 0.176,0.062 c -0.476,5.403 -0.597,10.321 -0.597,16.559 l 0,16.984 4.918,0 0,-40.441 -5.278,0 -12.844,20.519 c -2.816,4.5 -5.515,9.121 -7.5,13.5 l -0.179,-0.058 c 0.304,-5.102 0.363,-9.961 0.363,-16.68 l 0,-17.281 -4.922,0"
             style="fill:#ffffff;fill-opacity:1;fill-rule:nonzero;stroke:none"
             id="path76"
             inkscape:connector-curvature="0" /><path
             d="m 254.73,203.277 c 8.282,0 12.961,7.618 12.961,16.797 0,8.043 -4.199,16.442 -12.902,16.442 -8.695,0 -13.016,-8.102 -13.016,-16.864 0,-8.519 4.676,-16.375 12.899,-16.375 l 0.058,0 z m -0.238,-4.261 c -10.742,0 -18.18,8.281 -18.18,20.519 0,12.836 7.922,21.242 18.723,21.242 11.098,0 18.235,-8.461 18.235,-20.465 0,-13.859 -8.458,-21.296 -18.719,-21.296 l -0.059,0"
             style="fill:#ffffff;fill-opacity:1;fill-rule:nonzero;stroke:none"
             id="path78"
             inkscape:connector-curvature="0" /><path
             d="m 297.395,206.035 c 2.335,-1.5 5.695,-2.64 9.293,-2.64 5.343,0 8.464,2.757 8.464,6.898 0,3.723 -2.16,5.941 -7.625,7.984 -6.593,2.399 -10.675,5.879 -10.675,11.52 0,6.297 5.218,10.98 13.082,10.98 4.082,0 7.136,-0.961 8.878,-1.984 l -1.441,-4.258 c -1.258,0.777 -3.957,1.918 -7.621,1.918 -5.516,0 -7.617,-3.297 -7.617,-6.058 0,-3.778 2.457,-5.637 8.039,-7.801 6.84,-2.699 10.258,-5.938 10.258,-11.879 0,-6.242 -4.555,-11.699 -14.098,-11.699 -3.898,0 -8.156,1.199 -10.32,2.64 l 1.383,4.379"
             style="fill:#ffffff;fill-opacity:1;fill-rule:nonzero;stroke:none"
             id="path80"
             inkscape:connector-curvature="0" /><path
             d="m 344.973,206.035 c 2.336,-1.5 5.703,-2.64 9.3,-2.64 5.336,0 8.457,2.757 8.457,6.898 0,3.723 -2.16,5.941 -7.617,7.984 -6.601,2.399 -10.679,5.879 -10.679,11.52 0,6.297 5.218,10.98 13.078,10.98 4.082,0 7.14,-0.961 8.879,-1.984 l -1.442,-4.258 c -1.258,0.777 -3.957,1.918 -7.613,1.918 -5.524,0 -7.625,-3.297 -7.625,-6.058 0,-3.778 2.461,-5.637 8.043,-7.801 6.836,-2.699 10.258,-5.938 10.258,-11.879 0,-6.242 -4.559,-11.699 -14.102,-11.699 -3.898,0 -8.156,1.199 -10.316,2.64 l 1.379,4.379"
             style="fill:#ffffff;fill-opacity:1;fill-rule:nonzero;stroke:none"
             id="path82"
             inkscape:connector-curvature="0" /><path
             d="m 393.148,199.672 5.28516,0 0,40.4414 -5.28516,0 0,-40.4414 z"
             style="fill:#ffffff;fill-opacity:1;fill-rule:nonzero;stroke:none"
             id="path84"
             inkscape:connector-curvature="0" /><path
             d="m 446.43,218.633 -15.66,0 0,-14.578 17.523,0 0,-4.383 -22.801,0 0,40.441 21.903,0 0,-4.379 -16.625,0 0,-12.781 15.66,0 0,-4.32"
             style="fill:#ffffff;fill-opacity:1;fill-rule:nonzero;stroke:none"
             id="path86"
             inkscape:connector-curvature="0" /><path
             d="m 480.754,235.676 -12.301,0 0,4.437 29.938,0 0,-4.437 -12.36,0 0,-36.004 -5.277,0 0,36.004"
             style="fill:#ffffff;fill-opacity:1;fill-rule:nonzero;stroke:none"
             id="path88"
             inkscape:connector-curvature="0" /><path
             d="m 518.129,202.734 22.441,32.817 0,0.183 -20.519,0 0,4.379 27.297,0 0,-3.179 -22.321,-32.7 0,-0.179 22.625,0 0,-4.383 -29.523,0 0,3.062"
             style="fill:#ffffff;fill-opacity:1;fill-rule:nonzero;stroke:none"
             id="path90"
             inkscape:connector-curvature="0" /><path
             d="m 572.07,240.113 5.219,0 0,-19.496 0.184,0 c 1.078,1.555 2.156,2.996 3.175,4.321 l 12.36,15.175 6.484,0 -14.644,-17.16 15.781,-23.281 -6.18,0 -13.258,19.863 -3.902,-4.441 0,-15.422 -5.219,0 0,40.441"
             style="fill:#ffffff;fill-opacity:1;fill-rule:nonzero;stroke:none"
             id="path92"
             inkscape:connector-curvature="0" /><path
             d="m 631.594,199.672 0,17.164 -12.844,23.277 6,0 5.699,-11.16 c 1.5,-3.058 2.758,-5.519 4.02,-8.336 l 0.121,0 c 1.078,2.637 2.519,5.278 4.082,8.336 l 5.816,11.16 5.883,0 -13.5,-23.218 0,-17.223 -5.277,0"
             style="fill:#ffffff;fill-opacity:1;fill-rule:nonzero;stroke:none"
             id="path94"
             inkscape:connector-curvature="0" /></g></g></g></g></svg>